<?xml version="1.0" encoding="UTF-8" standalone="no"?>
<svg
   xmlns:dc="http://purl.org/dc/elements/1.1/"
   xmlns:cc="http://creativecommons.org/ns#"
   xmlns:rdf="http://www.w3.org/1999/02/22-rdf-syntax-ns#"
   xmlns:svg="http://www.w3.org/2000/svg"
   xmlns="http://www.w3.org/2000/svg"
   height="561.12921"
   width="358.57047"
   version="1.1"
   viewBox="0 0 358.57047 561.12919"
   id="svg2">
  <defs
     id="defs4" />
  <g
     transform="translate(-146.357,-380.1893)"
     id="layer1">
    <path
       d="m 207.02,555.93 c 100.54,-61.053 196.47,-36.777 211.43,-28.571 -78.17,-3.9817 -156.27,6.7294 -222.14,58.571 1.1436,-8.7041 1.6663,-16.905 10.714,-30 z"
       style="fill:#b7c7de"
       id="path3040" />
    <path
       d="m 163.45,471.64 c -1.7627,-7.745 -11.093,-4.5583 2.8571,-35 52.792,-53.831 288.41,-65.517 319.29,-20 13.443,13.326 12.271,27.626 -2.8571,42.857 15.665,14.911 24.119,45.474 -7.8571,61.429 14.791,18.938 16.27,33.64 -10.714,39.286 -2.0196,32.235 -2.4699,49.255 -35,54.286 5.8238,32.601 -13.804,44.65 -22.857,50 8.78,14.359 28.617,13.321 -0.71429,43.571 33.988,7.2702 46.328,24.089 22.857,43.571 15.242,5.2446 34.376,19.916 20,41.429 26.701,16.448 15.886,31.424 -3.5714,35.714 -0.38806,4.6119 1.007,11.007 -2.8571,12.143 8.3791,17.943 -16.224,27.387 -26.429,27.857 l -3.5714,5.7143 c -10.792,29.749 -15.442,22.654 -22.857,32.143 -8.8418,13.23 -1.5172,18.378 0,26.429 -9.0286,-5.081 -21.047,-3.6846 -19.286,-32.143 -8.3496,-7.5649 -19.279,-14.098 9.2857,-36.429 -5.3879,-17.194 13.358,-23.249 32.143,-29.286 -13.703,-11.859 -12.143,-26.493 -5,-42.143 -19.354,-11.054 -44.801,-0.75964 -43.571,-40.714 -2.6652,-12.404 -62.342,8.1572 -66.429,-66.429 -11.801,2.8862 -55.442,-0.60141 -30.714,-37.857 -17.911,-14.473 -51.029,-5.0503 -45,-57.143 -7.9017,-7.5353 -38.625,14.958 -14.286,-35 0.37172,-5.6505 -55.916,9.8444 -17.143,-52.143 -24.266,-1.2974 -47.98,-2.9263 -25.714,-32.143 z"
       style="fill:#929eb4;stroke:#555771;stroke-width:16.5;stroke-linejoin:round;stroke-miterlimit:4;stroke-dasharray:none;stroke-opacity:1"
       id="path2996" />
    <path
       d="m 368.80571,747.71571 c 19.274,-15.106 33.16329,-25.27271 64.64329,-25.35671 -28.57,-5.075 -46.42114,0.3502 -69.28614,20 z"
       style="fill:#6a737a"
       id="path3026" />
    <path
       d="M 322.02714,728.42429 C 363.32314,670.38029 406.67,682.71 406.67,682.71 c 0,0 -45.27986,-17.53629 -96.43286,33.92871 3.0952,3.0904 6.1905,6.56783 9.2857,11.42843 z"
       style="fill:#69717c"
       id="path3028" />
    <path
       d="m 297.02,684.85 c 51.339,-49.583 99.286,-44.643 99.286,-44.643 -83.939,-16.613 -125.82286,33.44029 -125.71286,33.57129 2.9362,0.42548 12.426,11.73257 34.286,5.71427 z"
       style="fill:#77808f"
       id="path3030" />
    <path
       d="m 256.04124,634.14286 c 25.84271,-24.7101 58.18808,-32.50123 104.55876,-34.21063 -25.44579,-8.45835 -117.93005,13.38696 -124.99571,25.19165 5.4628,3.36464 9.1012,7.21309 20.44258,9.01898 z"
       style="fill:#77808f"
       id="path3032" />
    <path
       d="m 172.18512,471.64 c 46.78367,-41.513 118.7253,-56.371 201.97488,-47.857 -31.08655,-12.221 -107.5966,-22.664 -206.08704,28.571 -1.22118,9.6716 0.78361,15.305 4.10804,19.286 z"
       style="fill:#b7c8df"
       id="path3036" />
    <path
       d="M 183.81418,539.5 C 249.44447,470.573 411.31,478.071 411.31,478.071 c -9.49255,4.4259 -65.46621,-37.084 -215.77888,27.857 -4.38565,10.694 -11.45249,18.61 -11.71983,33.571 z"
       style="fill:#bbd5f0"
       id="path3042" />
    <path
       d="M 163.81,489.85 C 270.41,391.66 483.42,450.99 482.38,477 397.22,422.64 189.64,456.24 163.81,489.85 Z"
       style="fill:#b7c7de"
       id="path3038" />
    <path
       d="M 196.19232,545.93359 C 213.5105,526.71965 244.2989,524.74612 269.171,518.07 c -24.88649,1.59881 -47.38419,-4.07047 -84.28557,25.30492 4.80538,2.12806 7.37625,2.71988 11.30689,2.55891 z"
       style="fill:#767f8e"
       id="path3034" />
    <path
       d="m 229.17143,415.21143 c -12.408,13.19 -3.13003,6.55357 0.71429,10.71457 -3.0872,5.7143 -17.806,11.429 3.5714,17.143 -17.824,15.805 -17.889,23.718 -1.4286,24.286 -0.73736,5.4868 -14.5,16.985 7.1428,12.143 -7.8403,11.667 -13.391,23.333 5,35 -1.2709,6.5728 -13.484,16.565 13.571,14.286 -10.091,15.522 -27.186,33.898 12.143,29.286 -24.767,51.4 -1.6208,45.762 11.429,52.143 -2.8702,10.008 -8.3144,21.56 16.429,15 -4.4278,9.009 -23.346,17.112 0,27.857 -1.6319,10.861 -9.6644,26.345 21.429,13.571 -8.9987,15.519 -15.512,29.692 3.5714,30 -1.4286,18.571 5.7143,27.619 21.429,27.143 3.757,3.6695 3.0815,9.8718 19.286,6.4286 2.2628,3.4787 -6.7795,8.2136 10.714,10 1.2868,8.5522 -11.026,19.824 7.1429,25 0.80122,6.7049 -3.3462,17.259 13.571,11.429 0.56657,9.7011 10.104,8.637 20,7.1428 -7.619,18.571 -6.6667,33.333 2.8571,44.286 l -7.1429,12.143 c -8.2787,0.76888 -16.716,1.3797 -15.714,11.429 -14.224,3.0186 -13.225,10.604 -8.5714,19.286 -8.7269,3.4354 -20.126,4.5327 -14.286,20.714 l 2.1428,26.429 c 2.304,-8.6203 0.48831,-24.107 7.8572,-24.286 -2.5335,-19.989 8.9955,-14.665 15,-19.286 -0.61454,-6.7768 -6.2112,-14.661 9.2857,-17.857 0.0687,-12.72 8.3442,-9.0259 13.571,-11.429 10.058,-4.6691 11.093,-13.205 7.8571,-23.571 -10.872,-5.7544 -3.5423,-20.61 0,-33.571 -6.1116,-7.7104 4.5152,-23.146 -23.571,-20.714 -1.2115,-6.0247 -6.6632,-10.636 -19.286,-12.857 18.039,-14.122 5.8501,-22.909 -7.8571,-31.429 -6.9048,-14.319 -13.81,-18.297 -20.714,-13.571 5.4112,-10.682 7.8828,-21.192 -18.571,-30 8.9754,-10.476 22.688,-20.952 -5,-31.429 2.6892,-20.291 3.2303,-38.22 -12.857,-37.857 7.6915,-32.174 -11.021,-14.473 -18.571,-17.857 8.1923,-7.4711 5.3454,-13.716 -3.5714,-19.286 20.352,-10.353 82.455,-21.414 -1.4286,-30 32.713,-12.514 40.767,-25.589 -10,-40 28.249,-12.056 63.136,-23.958 12.143,-37.857 30.94,-8.2385 24.649,-17.718 -1.4286,-27.857 27.798,-8.9219 21.287,-21.656 15.714,-34.286 l 11.42871,-5.00043 c -35.254,1.1748 -65.57957,6.2061 -93.21457,15 z"
       style="fill:#c3d5e9"
       id="path2998" />
    <path
       d="m 452.02005,572.35 c -112.09312,-44.865 -232.28261,14.306 -222.90126,17.857 -0.87028,7.008 -1.3673,12.646 -1.38025,21.429 55.86396,-32.461 115.06888,-60.174 224.28286,-39.286 z"
       style="fill:#bcd6f1"
       id="path3044" />
    <path
       d="m 416.00985,401.34414 c 26.111,10.561 33.02029,49.13357 3.57139,41.42857 73.968,47.844 0,70 0,70 40.56,22.204 50.702,39.675 5.7143,48.571 17.872,37.066 -11.334,44.172 -33.571,55.714 5.0368,17.893 6.9899,35.948 -23.571,55.714 23.951,3.99 40.437,11.021 13.571,35.714 17.946,8.8081 45.874,12.127 27.857,40.714 19.062,9.794 30.611,21.9 25,39.286 11.319,15.822 19.561,30.961 -2.8571,39.286 3.8443,23.452 -8.0203,32.622 -25,37.143 -4.5487,11.404 -6.4785,25.426 -20,27.857 -17.656,8.956 -13.347,15.716 -12.857,22.857 l 8.0664,17.013 c -4.0568,-16.477 -1.623,-26.257 9.7908,-31.299 8.1811,-6.495 12.064,-21.587 17.857,-32.857 -1.9266,-1.6198 27.475,1.8223 27.857,-25 1.1905,-4.7619 -0.58038,-13.966 3.5714,-14.286 21.118,-6.2888 26.381,-19.752 2.2295,-35.043 13.705,-16.851 -4.588,-39.351 -20.173,-41.385 31.593,-29.071 -9.5531,-40.787 -22.77,-42.857 13.93,-14.402 19.269,-22.97 0.46175,-44.372 19.558,-11.729 25.753,-28.723 23.11,-49.199 19.873,-4.218 35.124,-11.615 34.877,-54.286 25.378,-8.3463 22.23,-22.917 10.837,-39.286 22.431,-15.881 26.39,-36.209 7.7705,-62.857 34.958,-42.622 -33.58543,-58.616 -59.19943,-59.643 z"
       style="fill:#77808f"
       id="path3000" />
    <path
       d="m 478.09714,457.70857 c -28.509,-12.635 -57.449,-25.098 -107.14,-29.286 32.184,2.1234 53.83,-8.5196 115.71,15.714 -3.6173,9.8452 -5.8047,9.6806 -8.5714,13.571 z"
       style="fill:#6a727d"
       id="path3002" />
    <path
       d="m 469.88,521.64 c -96.206,-45.104 -147.09,-28.784 -197.86,-15 129.66,-20.71 164.71,11.929 207.86,40 -1.9e-4,-7.5926 -1.513,-15.521 -10,-25 z"
       style="fill:#69717a"
       id="path3004" />
    <path
       d="m 461.30857,560.21 c -53.883,-29.432 -86.875,-17.083 -125.71,-16.429 48.861,2.15 104.16,5.0982 124.64,24.643 z"
       style="fill:#667079"
       id="path3006" />
    <path
       d="m 455.59429,594.50143 c -90.266,-38.039 -167.58,-3.5966 -171.43,1.4286 95.399,-17.267 130.22,-3.0692 159.29,11.429 6.789,-2.2297 8.9433,-7.9354 12.143,-12.857 z"
       style="fill:#616b77"
       id="path3008" />
    <path
       d="m 430.6,616.64 c -54.667,-19.446 -104.84,-6.1266 -152.86,22.857 45.06,-18.048 90.233,-35.429 151.07,-4.2857 2.928,-4.6353 1.3935,-12.246 1.7857,-18.571 z"
       style="fill:#68727b"
       id="path3010" />
    <path
       d="m 421.31,651.64 c -52.177,-4.3138 -77.096,13.52 -99.286,33.571 27.966,-8.0502 55.035,-25.398 88.214,-16.071 -11.175,-5.0509 6.2,-11.605 11.071,-17.5 z"
       style="fill:#6a727d"
       id="path3012" />
    <path
       d="m 415.6,695.93 c -58.389,1.2513 -60.733,21.184 -72.857,37.857 18.89,-12.112 31.186,-29.424 64.286,-28.214 5.1798,-3.2143 5.9296,-6.4286 8.5714,-9.6429 z"
       style="fill:#69717c"
       id="path3014" />
    <path
       d="m 441.67,734.85 c -33.323,1.5488 -48.33,19.132 -64.643,33.214 17.679,-6.7243 32.406,-22.322 51.786,-17.143 z"
       style="fill:#69727b"
       id="path3016" />
    <path
       d="m 413.80714,791.64143 c 13.309,-2.2512 7.40686,-12.49943 31.78586,1.42857 -6.4303,-9.1117 -3.86986,-23.88286 -37.14286,-8.92856 z"
       style="fill:#667079"
       id="path3018" />
    <path
       d="m 449.88429,799.49429 c -12.197,-1.1655 -20.823,3.9176 -29.286,9.2857 18.333,-3.8095 31.429,-2.8572 39.286,2.8571 -1.6526,-6.9889 -4.5485,-11.802 -10,-12.143 z"
       style="fill:#6a737c"
       id="path3020" />
    <path
       d="m 451.31,825.93 c -5.2269,-6.6495 -19.74,-2.8521 -32.143,-1.4286 8.8232,2.5374 21.266,4.4715 25,7.8571 -1.4286,-3.5714 0.95238,-5.7143 7.1429,-6.4286 z"
       style="fill:#6a707c"
       id="path3022" />
    <path
       d="m 439.17,855.93 c -26.112,8.0566 -36.54,1.5493 -50,-2.1429 6.8416,7.1928 16.637,14.15829 17.5,19.64329 5.3918,-8.7327 22.022,-11.31029 32.5,-17.50029 z"
       style="fill:#6b747d"
       id="path3024" />
    <path
       d="m 232.84,562.94 c 34.576,-23.022 85.95,-33.172 122.23,-30.81 -34.008,2.2588 -82.664,12.048 -122.23,30.81 z"
       style="fill:#ffffff"
       id="path3908" />
    <path
       style="fill:#ffffff"
       d="m 212.64,526.58 c 38.005,-23.022 94.474,-33.172 134.35,-30.81 -37.381,2.2588 -90.862,12.048 -134.35,30.81 z"
       id="path3910" />
    <path
       d="m 209.37,479.13 c 40.185,-18.962 97.402,-23.209 136.82,-16.729 -37.414,-1.6248 -91.621,2.5729 -136.82,16.729 z"
       style="fill:#ffffff"
       id="path3912" />
    <path
       style="fill:#ffffff"
       d="m 247.99,616.48 c 27.432,-23.022 68.192,-33.172 96.975,-30.81 -26.982,2.2588 -65.585,12.048 -96.975,30.81 z"
       id="path3914" />
    <path
       d="m 268.2,661.94 c 25.146,-23.022 62.509,-33.172 88.893,-30.81 -24.733,2.2588 -60.119,12.048 -88.893,30.81 z"
       style="fill:#ffffff"
       id="path3916" />
  </g>
  <metadata
     id="metadata60">
    <rdf:RDF>
      <cc:Work>
        <dc:format>image/svg+xml</dc:format>
        <dc:type
           rdf:resource="http://purl.org/dc/dcmitype/StillImage" />
        <cc:license
           rdf:resource="http://creativecommons.org/publicdomain/zero/1.0/" />
        <dc:publisher>
          <cc:Agent
             rdf:about="http://openclipart.org/">
            <dc:title>Openclipart</dc:title>
          </cc:Agent>
        </dc:publisher>
        <dc:title></dc:title>
        <dc:date>2011-01-15T02:05:49</dc:date>
        <dc:description>tornado cartoon style.</dc:description>
        <dc:source>https://openclipart.org/detail/104887/tornado-by-laabadon</dc:source>
        <dc:creator>
          <cc:Agent>
            <dc:title>laabadon</dc:title>
          </cc:Agent>
        </dc:creator>
        <dc:subject>
          <rdf:Bag>
            <rdf:li>cartoon</rdf:li>
            <rdf:li>tornado</rdf:li>
            <rdf:li>weather</rdf:li>
            <rdf:li>wind</rdf:li>
          </rdf:Bag>
        </dc:subject>
      </cc:Work>
      <cc:License
         rdf:about="http://creativecommons.org/publicdomain/zero/1.0/">
        <cc:permits
           rdf:resource="http://creativecommons.org/ns#Reproduction" />
        <cc:permits
           rdf:resource="http://creativecommons.org/ns#Distribution" />
        <cc:permits
           rdf:resource="http://creativecommons.org/ns#DerivativeWorks" />
      </cc:License>
    </rdf:RDF>
  </metadata>
</svg>
